# xmcd CD database file
#
# Track frame offsets:
#	150
#	14550
#	18800
#	30462
#	45192
#	80795
#	91332
#	105677
#	109150
#	112825
#	130542
#	142875
#	151707
#	161937
#	176752
#	189670
#	201582
#	210305
#	224652
#
# Disc length: 3108 seconds
#
# Revision: 1
# Processed by: cddbd v1.5.2PL0 Copyright (c) Steve Scherf et al.
# Submitted via: CDex 1.51
#
DISCID=fb0c2213
DTITLE=ASMF - Marriner - Walton Film Music Volume 1
DYEAR=1989
DGENRE=Film Music
TTITLE0=Hamlet -I- Prelude
TTITLE1=Hamlet -IIa- Fanfare
TTITLE2=Hamlet -IIb- Soliloquy
TTITLE3=Hamlet -III- The Ghost
TTITLE4=Hamlet -IV- Hamlet and Ophelia
TTITLE5=Hamlet -V- The Question (To be or not to be)
TTITLE6=Hamlet -Vb- To be or not to be
TTITLE7=Hamlet -VIa- The Mousetrap - The Players
TTITLE8=Hamlet -VIb- The Mousetrap - Entry of the Court
TTITLE9=Hamlet -VIc- The Mousetrap - The Play
TTITLE10=Hamlet -VII- Ophelia's Death
TTITLE11=Hamlet -VIIIa- Retribution
TTITLE12=Hamlet -VIIIb-Threnody
TTITLE13=Hamlet -IX-Finale (Funeral March)
TTITLE14=As You Like It -I- Prelude
TTITLE15=As You Like It -II- Moonlight
TTITLE16=As You Like It -III- Under the Greenwood Tree
TTITLE17=As You Like It -IV- The Fountain
TTITLE18=As You Like It -V- Wedding Procession
EXTD=Producer Brian Couzens\nEngineer Ralph Couzens\nRecorded St.Judes Church Central Square London NW11 November 1989\nChandos CHAN 8842\n\nOB06 YEAR: 1989
EXTT0=
EXTT1=
EXTT2=Sir John Gielgud
EXTT3=Sir John Gielgud
EXTT4=Sir John Gielgud
EXTT5=Sir John Gielgud
EXTT6=Sir John Gielgud
EXTT7=Sir John Gielgud
EXTT8=Sir John Gielgud
EXTT9=Sir John Gielgud
EXTT10=Sir John Gielgud
EXTT11=
EXTT12=
EXTT13=
EXTT14=
EXTT15=
EXTT16=
EXTT17=
EXTT18=
PLAYORDER=
